<?xml version="1.0" encoding="utf-8"?>
<!-- Generator: Adobe Illustrator 19.1.0, SVG Export Plug-In . SVG Version: 6.00 Build 0)  -->
<svg version="1.1" id="Layer_1" xmlns="http://www.w3.org/2000/svg" xmlns:xlink="http://www.w3.org/1999/xlink" x="0px" y="0px"
	 width="135px" height="172.8px" viewBox="-132 114.2 135 172.8" style="enable-background:new -132 114.2 135 172.8;"
	 xml:space="preserve">
<style type="text/css">
	.st0{fill:#FFFFFF;}
	.st1{fill:#FCFBFA;}
	.st2{fill:#252526;}
	.st3{fill:#E0E0E0;}
	.st4{fill:#56555C;}
</style>
<animateTransform  type="translate" fill="freeze" begin="playButton.click" to="-1,-3" calcMode="linear" restart="always" dur=".2s" accumulate="none" additive="sum" attributeName="transform" from="0,0" xlink:href="#rightBrow">
	</animateTransform>
<animateTransform  type="translate" fill="freeze" begin="playButton.click+1" to="1,3" calcMode="linear" restart="always" dur=".2s" accumulate="none" additive="sum" attributeName="transform" from="0,0" xlink:href="#rightBrow">
	</animateTransform>
<path class="st0" d="M-64.6,272.1c-7.3,0-14.3-1.5-20.9-4.3C-92,265-97.7,261-102.6,256c-4.9-5-8.6-10.9-11.2-17.3
	c-1-2.5-2.1-5.1-2.7-7.8l0,0l-0.6-4.2c-5.1-2.1-8.7-6.9-9.9-11.7c-1.5-5.8-3.3-14.4-3.5-22.2c-0.2-6.2,3.4-12,9-14.5
	c3.8-1.7,9-3.1,15.4-4.3c4-8.8,8.6-16.4,13.4-22.3c8.6-10.4,18-15.7,28.1-15.7c10.1,0,19.6,5.3,28.1,15.7
	c4.8,5.8,9.4,13.4,13.3,22.1c6.4,1.1,11.6,2.5,15.6,4.3c5.6,2.5,9.1,8.1,9,14.2c-0.3,9-2.6,18.8-3.5,22.6c-1.2,4.8-4.9,9.7-10,11.7
	l-0.6,4.2l0,0c-0.6,2.7-1.6,5.3-2.6,7.8c-2.6,6.5-6.3,12.3-11.2,17.4c-4.9,5.1-10.6,9-17.1,11.8C-50.3,270.6-57.3,272.1-64.6,272.1z
	"/>
<g>
	<path class="st1" d="M-64.9,145.9c23.4,0,42.4,50.4,42.4,73.8s-19,42.4-42.4,42.4s-42.4-19-42.4-42.4S-88.4,145.9-64.9,145.9z"/>
	<g>
		<path class="st2" d="M-11.1,186.6l-17.3,6.1c0,0,2.7,8.1,2.7,8.2c0,0.1,17.2-2.2,17.2-2.2L-11.1,186.6z"/>
		<path class="st2" d="M-118.7,186.6l17.3,6.1c0,0-2.7,8.1-2.7,8.2c0,0.1-17.2-2.2-17.2-2.2L-118.7,186.6z"/>
	</g>
	<path class="st3" d="M-82.7,185.1c4.3,0.1,5.3,3.7,5.5,4.5c0.5,2.6,0.9,5.7,1.1,8.9c0,0.9-0.1,1.7-0.2,2.5c-0.2-2.2-0.5-4.2-0.9-6
		c-0.2-0.9-1.1-4.5-5.5-4.5c-2.6,0-11.1,0.3-19.4,1.5c0.6-1.9,1.3-3.8,2-5.7C-92.5,185.4-85.2,185.1-82.7,185.1z"/>
	<path class="st3" d="M-22.6,217.9c-15.3-0.8-28.3-5.7-31.3-7.4c-2.3-1.1-5.2-3.4-6.1-9.2c-0.6,6.4,0.6,12.3,6.7,15.1
		c0.4,0.3,12,6,30.6,6.9c0.1-1.2,0.1-2.3,0.1-3.5C-22.5,219.1-22.6,218.5-22.6,217.9z"/>
	<path class="st3" d="M-107.2,217.9c15.3-0.8,28.3-5.7,31.3-7.4c2.3-1.1,5.2-3.4,6.1-9.2c0.6,6.4-0.6,12.3-6.7,15.1
		c-0.4,0.3-12,6-30.6,6.9c-0.1-1.2-0.1-2.3-0.1-3.5C-107.3,219.1-107.3,218.5-107.2,217.9z"/>
	<path class="st3" d="M-47.2,185.1c-4.3,0.1-5.3,3.7-5.5,4.5c-0.5,2.6-0.9,5.7-1.1,8.9c0,0.9,0.1,1.7,0.2,2.5c0.2-2.2,0.5-4.2,0.9-6
		c0.2-0.9,1.1-4.5,5.5-4.5c2.6,0,11.1,0.3,19.4,1.5c-0.6-1.9-1.3-3.8-2-5.7C-37.4,185.4-44.7,185.1-47.2,185.1z"/>
	<path class="st4" d="M-102,180.6c4.2-10.1,9.2-18.8,14.5-25.3c7.2-8.7,14.8-13.2,22.7-13.2c7.8,0,15.4,4.4,22.6,13.2
		c5.3,6.4,10.3,15.2,14.5,25.3l0.2,0.5l-0.5-0.1c-1.5-0.2-2.7-0.3-4.1-0.5l-0.2,0l-0.1-0.2c-4.7-10.9-12.7-25.2-23-31.2
		c-3.1-1.8-6.3-2.7-9.4-2.7s-6.3,0.9-9.4,2.7c-10.3,6-18.3,20.2-23,31.2l-0.1,0.2l-0.2,0c-1.5,0.2-2.7,0.3-4.1,0.5l-0.5,0.1
		L-102,180.6z"/>
	<path class="st4" d="M-22.1,212.6c-1.1,0-2.3-0.1-3.5-0.1l-0.4,0l0-0.4c-1-8-3.3-17.5-6.6-26.5l-0.2-0.7l0.7,0.1
		c1.3,0.2,2.6,0.4,3.8,0.6l0.3,0l0.1,0.2c3.1,9,5.3,18.4,6.2,26.3l0.1,0.5L-22.1,212.6z"/>
	<path class="st2" d="M-25.9,192.2c-0.6-2.1-1.3-4.2-2-6.4l-0.1-0.2l-0.3,0c-1.2-0.2-2.5-0.4-3.8-0.6l-0.7-0.1l0.2,0.7
		c0.7,2,1.4,4,2,6.1C-28.3,191.9-27,192-25.9,192.2z"/>
	<path class="st4" d="M-107.9,211.9c0.9-7.9,3.2-17.2,6.2-26.3l0.1-0.2l0.3,0c1.2-0.2,2.5-0.4,3.8-0.6l0.7-0.1l-0.2,0.7
		c-3.2,9.1-5.5,18.5-6.6,26.5l0,0.4l-0.4,0c-1.1,0.1-2.3,0.1-3.5,0.1l-0.5,0L-107.9,211.9z"/>
	<path class="st2" d="M-101.3,185.4l-0.3,0l-0.1,0.2c-0.7,2.1-1.4,4.2-2,6.4c2.2-0.3,2.8-0.2,4.6-0.4c0.6-2.1,1.3-4.2,2-6.2l0.2-0.7
		l-0.7,0.1C-98.8,185-100.1,185.2-101.3,185.4z"/>
	<path class="st4" d="M-64.9,266c-6.3,0-12.5-1.3-18.3-3.8c-5.7-2.4-10.7-5.9-15-10.4c-4.2-4.4-7.5-9.5-9.8-15.2
		c-2.3-5.9-3.4-12.3-3.2-18.8l0-0.3l0.3,0c1.5,0,2.5-0.1,3.6-0.1l0.3,0l0,0.3c-0.2,6.1,0.7,11.7,2.8,17.2c2,5.2,5,9.8,8.9,13.9
		c3.9,4,8.5,7.2,13.6,9.5c5.3,2.3,10.9,3.5,16.7,3.5c5.8,0,11.4-1.2,16.7-3.5c5.1-2.2,9.7-5.4,13.6-9.5c3.9-4,6.8-8.7,8.8-13.9
		c2.1-5.5,3-11.1,2.8-17.2l0-0.3l0.3,0c1.5,0.1,2.5,0.1,3.6,0.1l0.3,0l0,0.3c0.2,6.6-0.8,12.9-3.2,18.8c-2.2,5.7-5.5,10.8-9.8,15.2
		c-4.3,4.4-9.3,7.9-14.9,10.3C-52.4,264.7-58.6,266-64.9,266z"/>
	<path class="st2" d="M-106.8,223.3c-0.1-1.8-0.2-3.7-0.1-5.5l0-0.3l-0.3,0c-1.1,0.1-2.1,0.1-3.6,0.1l-0.3,0l0,0.3
		c-0.1,1.9,0,3.7,0.1,5.6l0.1,0C-109.5,223.4-108.1,223.3-106.8,223.3L-106.8,223.3z"/>
	<path class="st2" d="M-18.7,217.6l-0.3,0c-1.1,0-2.1-0.1-3.6-0.1l-0.3,0l0,0.3c0.1,1.9,0,3.7-0.1,5.5l4.2,0.2
		c0.1-1.8,0.2-3.7,0.1-5.6L-18.7,217.6z"/>
	<path class="st2" d="M-16.3,218c-9.3,0-18.1-0.9-26.2-3.1c-4-1.1-7.8-2.4-10.7-3.8l-0.1,0c-7.2-3.5-7.5-10.3-6.8-16.7
		c0.2-1.6-0.4-3.7-2.1-4.8c-0.8-0.5-1.7-0.8-2.6-0.8c-0.9,0-1.9,0.3-2.6,0.8c-1.7,1.1-2.3,3.2-2.1,4.8c0.7,6.3,0.4,13.2-6.8,16.7
		l-0.1,0c-2.9,1.4-6.7,2.6-10.7,3.7c-8.1,2.2-16.9,3.1-26.2,3.1h0c-3.7,0-6.8-2.3-7.8-5.9c-1.4-5.3-3.2-13.1-3.4-20.5
		c-0.1-3,1.6-5.7,4.3-6.9c9.9-4.4,30.1-6,38.7-5.9c3.2,0,5.9,1.2,8,3.3c2.9-1.3,5.9-2,8.7-2c2.9,0,5.8,0.7,8.7,2
		c1.5-1.5,4-3.2,8-3.3c5.2-0.1,27.3,0.9,38.7,5.9c2.7,1.2,4.4,3.9,4.3,6.9c-0.2,7.5-2,15.2-3.4,20.5C-9.5,215.7-12.7,218-16.3,218
		L-16.3,218z M-47.1,185.5c-4.2,0.1-5,3.6-5.2,4.3c-0.4,2.1-0.9,5.4-1.1,8.9c0,3.4,1.2,5.7,3.6,6.9c9.1,4.1,19.7,6.1,32.3,6.1
		c1,0,1.8-0.7,2.1-1.6c1.2-4.7,2.8-11.7,3-18.1c0-0.6-0.3-1.2-0.9-1.4C-21.9,186.7-40.4,185.4-47.1,185.5z M-116.6,190.5
		c-0.6,0.3-0.9,0.8-0.9,1.4c0.2,6.4,1.8,13.4,3,18.1c0.2,0.9,1.1,1.6,2.1,1.6c12.7-0.1,23.2-2.1,32.4-6.1c2.4-1.2,3.7-3.5,3.6-6.9
		c-0.1-2.7-0.5-5.8-1.1-8.9c-0.1-0.7-1-4.2-5.2-4.3C-86.7,185.4-106.8,186.2-116.6,190.5z"/>
</g>
</svg>
